<svg xmlns="http://www.w3.org/2000/svg" version="1.0" width="512.000000pt" height="512.000000pt" viewBox="0 0 512.000000 512.000000" preserveAspectRatio="xMidYMid meet">

<g transform="translate(0.000000,512.000000) scale(0.100000,-0.100000)" fill="#ffffff" stroke="none">
<path d="M1506 4789 c-62 -15 -153 -68 -197 -116 -22 -24 -55 -74 -72 -111 l-32 -67 0 -1936 0 -1935 37 -76 c45 -91 103 -147 196 -191 l67 -32 1055 0 1055 0 67 32 c93 44 151 100 196 191 l37 76 0 1936 0 1936 -37 76 c-45 91 -103 147 -196 191 l-67 32 -1035 2 c-604 1 -1051 -3 -1074 -8z m2088 -161 c55 -16 138 -99 154 -154 7 -24 12 -100 12 -178 l0 -136 -1200 0 -1200 0 0 136 c0 78 5 154 12 178 15 51 99 137 148 153 53 16 2018 17 2074 1z m166 -2148 l0 -1520 -1200 0 -1200 0 0 1520 0 1520 1200 0 1200 0 0 -1520z m0 -1736 c0 -31 -5 -75 -12 -98 -16 -55 -99 -138 -154 -154 -60 -17 -2008 -17 -2068 0 -55 16 -138 99 -154 154 -7 23 -12 67 -12 98 l0 56 1200 0 1200 0 0 -56z" fill="#ffffff"/>
<path d="M2265 4455 c-16 -15 -25 -36 -25 -55 0 -19 9 -40 25 -55 l24 -25 271 0 271 0 24 25 c16 15 25 36 25 55 0 19 -9 40 -25 55 l-24 25 -271 0 -271 0 -24 -25z" fill="#ffffff"/>
<path d="M3065 4455 c-16 -15 -25 -36 -25 -55 0 -19 9 -40 25 -55 15 -16 36 -25 55 -25 19 0 40 9 55 25 16 15 25 36 25 55 0 19 -9 40 -25 55 -15 16 -36 25 -55 25 -19 0 -40 -9 -55 -25z" fill="#ffffff"/>
<path d="M2125 3234 c-225 -113 -418 -216 -427 -227 -16 -20 -18 -64 -18 -525 0 -332 4 -510 10 -523 12 -22 838 -439 870 -439 32 0 858 417 869 439 16 30 15 1001 -1 1037 -10 21 -90 65 -430 235 -230 115 -428 209 -440 208 -13 0 -207 -92 -433 -205z m740 -116 c168 -84 305 -155 305 -158 0 -3 -137 -74 -305 -158 l-305 -152 -305 152 c-168 84 -305 155 -305 158 0 4 594 306 607 309 2 1 140 -68 308 -151z m-385 -998 l0 -390 -320 160 -320 160 0 390 0 390 320 -160 320 -160 0 -390z m800 320 l0 -390 -320 -160 -320 -160 0 390 0 390 318 159 c174 88 318 160 320 160 1 1 2 -174 2 -389z" fill="#ffffff"/>
</g>
</svg>