<svg xmlns="http://www.w3.org/2000/svg" version="1.0" width="512.000000pt" height="512.000000pt" viewBox="0 0 512.000000 512.000000" preserveAspectRatio="xMidYMid meet">

<g transform="translate(0.000000,512.000000) scale(0.100000,-0.100000)" fill="#ffffff" stroke="none">
<path d="M1220 4908 c-64 -33 -103 -92 -103 -160 -1 -68 25 -123 74 -157 l38 -26 1 -146 c0 -133 2 -149 21 -173 l20 -26 245 0 244 0 0 -220 0 -220 -188 0 c-250 0 -232 18 -232 -233 l0 -187 -220 0 -220 0 0 244 0 245 -26 20 c-24 19 -40 21 -173 21 l-146 1 -26 38 c-55 78 -173 100 -252 45 -114 -79 -113 -242 1 -315 85 -54 205 -30 259 52 l26 39 98 0 98 0 3 -244 c3 -223 5 -246 22 -265 19 -20 27 -21 288 -21 l268 0 0 -175 0 -175 -388 0 -388 0 -38 46 c-83 98 -202 101 -288 6 -66 -73 -62 -181 11 -253 84 -84 224 -70 286 28 l20 32 393 1 392 0 0 -170 0 -170 -392 0 -393 1 -20 32 c-45 72 -140 103 -220 73 -123 -48 -163 -202 -77 -298 82 -91 202 -92 280 -4 17 20 32 41 32 46 0 6 148 10 395 10 l395 0 0 -175 0 -175 -268 0 c-261 0 -269 -1 -288 -21 -17 -19 -19 -42 -22 -265 l-3 -244 -98 0 -98 0 -26 39 c-54 82 -174 106 -259 52 -140 -89 -104 -297 59 -340 74 -20 162 15 200 79 l17 30 147 0 c133 0 149 2 173 21 l26 20 0 245 0 244 220 0 220 0 0 -188 c0 -250 -18 -232 233 -232 l187 0 0 -220 0 -220 -244 0 -245 0 -20 -26 c-19 -24 -21 -40 -21 -173 l0 -147 -30 -17 c-64 -38 -99 -126 -79 -199 43 -164 251 -200 340 -60 54 85 30 205 -52 259 l-39 26 0 98 0 98 244 3 c223 3 246 5 265 22 20 19 21 27 21 288 l0 268 175 0 175 0 0 -386 0 -386 -46 -41 c-53 -47 -74 -88 -74 -147 0 -54 20 -98 61 -136 60 -55 133 -68 204 -35 135 61 151 248 28 326 l-32 20 -1 393 0 392 170 0 170 0 0 -392 -1 -393 -32 -20 c-72 -45 -103 -140 -73 -220 48 -123 202 -163 298 -77 48 43 68 85 68 142 0 59 -22 102 -74 146 l-46 38 0 388 0 388 175 0 175 0 0 -268 c0 -261 1 -269 21 -288 19 -17 42 -19 265 -22 l244 -3 0 -99 0 -98 -35 -22 c-85 -53 -111 -174 -56 -262 89 -140 297 -104 340 60 20 73 -23 176 -85 204 -24 11 -24 13 -24 158 0 134 -2 150 -21 174 l-20 26 -245 0 -244 0 0 220 0 220 189 0 190 0 20 26 c20 25 21 40 21 210 l0 184 220 0 220 0 0 -244 0 -245 26 -20 c24 -19 40 -21 173 -21 l147 0 17 -30 c38 -63 129 -99 203 -79 161 44 195 252 56 340 -85 54 -205 30 -259 -52 l-26 -39 -98 0 -98 0 -3 244 c-3 223 -5 246 -22 265 -19 20 -27 21 -288 21 l-268 0 0 175 0 175 388 0 388 0 38 -46 c44 -52 87 -74 146 -74 54 0 98 20 136 61 55 60 68 133 35 204 -61 135 -248 151 -326 28 l-20 -32 -392 -1 -393 0 0 170 0 170 393 0 392 -1 20 -32 c45 -72 140 -103 220 -73 123 48 163 202 77 298 -43 48 -85 68 -142 68 -59 0 -102 -22 -146 -74 l-38 -46 -388 0 -388 0 0 175 0 175 268 0 c261 0 269 1 288 21 17 19 19 42 22 265 l3 244 98 0 98 0 26 -39 c54 -82 174 -106 259 -52 114 73 115 236 1 315 -79 55 -197 33 -252 -45 l-26 -38 -146 -1 c-133 0 -149 -2 -173 -21 l-26 -20 0 -245 0 -244 -220 0 -220 0 0 188 c0 250 18 232 -233 232 l-187 0 0 220 0 220 244 0 245 0 20 26 c19 24 21 40 21 174 0 145 0 147 24 158 61 28 105 134 85 208 -44 161 -252 195 -340 56 -54 -85 -30 -205 52 -259 l39 -26 0 -98 0 -98 -244 -3 c-223 -3 -246 -5 -265 -22 -20 -19 -21 -27 -21 -288 l0 -268 -175 0 -175 0 0 388 0 388 46 38 c52 44 74 87 74 146 0 54 -20 98 -61 136 -60 55 -133 68 -204 35 -135 -61 -151 -248 -28 -326 l32 -20 1 -392 0 -393 -170 0 -170 0 0 393 1 392 32 20 c72 45 103 140 73 220 -48 123 -202 163 -298 77 -48 -43 -68 -85 -68 -142 0 -59 22 -102 74 -146 l46 -38 0 -388 0 -388 -175 0 -175 0 0 268 c0 261 -1 269 -21 288 -19 17 -42 19 -265 22 l-244 3 0 98 0 98 39 26 c23 15 47 44 60 69 81 168 -86 338 -249 256z m111 -128 c12 -7 19 -21 19 -40 0 -51 -58 -68 -86 -25 -15 23 -15 27 0 50 18 27 36 31 67 15z m1021 -7 c22 -20 23 -41 1 -65 -20 -22 -46 -23 -67 -2 -20 20 -20 48 0 68 20 21 43 20 66 -1z m482 1 c30 -29 9 -84 -31 -84 -21 0 -53 29 -53 48 0 22 30 52 51 52 10 0 25 -7 33 -16z m1022 -9 c15 -23 15 -27 0 -50 -28 -42 -86 -26 -86 25 0 51 58 68 86 25z m-3445 -914 c20 -16 22 -23 14 -47 -9 -24 -16 -29 -45 -29 -29 0 -36 5 -45 29 -8 24 -6 31 14 47 13 10 27 19 31 19 4 0 18 -9 31 -19z m4360 0 c20 -16 22 -23 14 -47 -9 -24 -16 -29 -45 -29 -29 0 -36 5 -45 29 -8 24 -6 31 14 47 13 10 27 19 31 19 4 0 18 -9 31 -19z m-1131 -1291 l0 -1080 -1080 0 -1080 0 0 1080 0 1080 1080 0 1080 0 0 -1080z m-3226 274 c9 -8 16 -23 16 -31 0 -21 -29 -53 -48 -53 -22 0 -52 30 -52 51 0 23 26 49 50 49 10 0 26 -7 34 -16z m4360 0 c9 -8 16 -23 16 -31 0 -21 -29 -53 -48 -53 -22 0 -52 30 -52 51 0 23 26 49 50 49 10 0 26 -7 34 -16z m-4359 -484 c35 -39 -3 -91 -55 -75 -28 9 -37 51 -15 75 10 11 26 20 35 20 9 0 25 -9 35 -20z m4360 0 c35 -39 -3 -91 -55 -75 -28 9 -37 51 -15 75 10 11 26 20 35 20 9 0 25 -9 35 -20z m-4355 -1019 c16 -31 12 -49 -15 -67 -23 -15 -27 -15 -50 0 -43 28 -26 86 25 86 19 0 33 -7 40 -19z m4360 0 c16 -31 12 -49 -15 -67 -23 -15 -27 -15 -50 0 -43 28 -26 86 25 86 19 0 33 -7 40 -19z m-3449 -911 c12 -7 19 -21 19 -40 0 -51 -58 -68 -86 -25 -15 23 -15 27 0 50 18 27 36 31 67 15z m1021 -7 c22 -20 23 -41 1 -65 -20 -22 -46 -23 -67 -2 -30 29 -9 84 31 84 9 0 25 -7 35 -17z m482 1 c30 -29 9 -84 -31 -84 -21 0 -53 29 -53 48 0 22 30 52 51 52 10 0 25 -7 33 -16z m1022 -9 c15 -23 15 -27 0 -50 -28 -42 -86 -26 -86 25 0 51 58 68 86 25z" fill="#ffffff"/>
<path d="M1722 3397 l-22 -23 0 -815 0 -816 23 -21 23 -22 816 0 817 0 20 26 c21 27 21 32 21 839 l0 812 -23 21 -23 22 -815 0 -816 0 -21 -23z m1558 -837 l0 -720 -720 0 -720 0 0 720 0 720 720 0 720 0 0 -720z" fill="#ffffff"/>
<path d="M3062 2967 c-21 -22 -22 -31 -22 -245 0 -209 1 -223 20 -242 11 -11 33 -20 50 -20 17 0 39 9 50 20 19 19 20 33 20 243 0 221 0 224 -23 245 -30 28 -68 28 -95 -1z" fill="#ffffff"/>
</g>
</svg>