<svg xmlns="http://www.w3.org/2000/svg" version="1.0" width="512.000000pt" height="512.000000pt" viewBox="0 0 512.000000 512.000000" preserveAspectRatio="xMidYMid meet">

<g transform="translate(0.000000,512.000000) scale(0.100000,-0.100000)" fill="#ffffff" stroke="none">
<path d="M1151 4614 c-93 -47 -145 -154 -122 -254 5 -24 9 -45 8 -45 -1 -1 -40 -14 -87 -29 -47 -15 -131 -52 -188 -81 -383 -199 -638 -534 -734 -966 -30 -135 -32 -395 -5 -532 101 -505 461 -915 941 -1072 310 -101 653 -89 961 34 225 91 458 269 590 455 22 30 42 55 45 55 3 0 23 -25 45 -57 107 -151 347 -350 451 -373 145 -33 284 79 284 227 0 93 -36 153 -130 217 -211 143 -356 365 -399 611 -16 87 -13 256 5 344 45 218 188 438 371 568 362 259 865 218 1182 -95 267 -263 348 -663 206 -1012 -58 -144 -175 -293 -303 -388 -64 -46 -200 -121 -222 -121 -5 0 -10 13 -10 28 0 98 -85 201 -186 223 -100 22 -193 -17 -248 -105 -69 -109 -196 -355 -206 -400 -11 -52 0 -124 27 -165 19 -29 225 -285 262 -324 89 -97 253 -97 342 0 45 48 63 93 61 158 0 33 -2 68 -4 78 -2 14 15 23 84 47 48 16 123 47 166 69 639 321 935 1050 700 1720 -35 101 -111 251 -138 276 -43 39 -120 9 -120 -45 0 -15 27 -83 60 -151 134 -280 163 -577 85 -869 -71 -264 -239 -512 -460 -678 -126 -95 -337 -187 -518 -227 -67 -14 -86 -76 -41 -136 40 -53 46 -75 30 -113 -19 -45 -66 -65 -107 -45 -16 8 -84 82 -154 169 -105 130 -125 160 -125 188 0 43 169 362 208 393 34 26 78 19 110 -17 28 -32 28 -60 -3 -118 -47 -89 -25 -146 56 -146 47 0 197 49 281 91 182 92 347 248 450 425 50 85 103 223 124 319 21 97 24 322 5 410 -99 476 -460 814 -936 876 -432 56 -882 -185 -1079 -579 -82 -163 -103 -251 -121 -500 -15 -201 -34 -305 -78 -423 -65 -171 -154 -308 -291 -445 -245 -245 -532 -364 -876 -364 -207 0 -380 40 -555 128 -231 116 -402 277 -532 504 -231 402 -210 913 53 1309 164 247 437 437 739 513 54 14 106 33 116 42 28 25 23 70 -13 120 -38 53 -41 94 -8 129 17 18 34 25 60 25 43 0 53 -9 204 -197 87 -109 106 -139 106 -166 0 -38 -167 -359 -202 -389 -27 -24 -79 -23 -106 2 -36 34 -38 66 -8 127 32 66 33 105 4 133 -27 25 -55 25 -148 -1 -339 -93 -626 -369 -733 -704 -42 -130 -51 -192 -51 -335 1 -149 22 -265 70 -387 61 -156 104 -192 169 -142 34 28 31 61 -19 179 -51 122 -69 214 -69 355 0 358 192 663 520 829 40 20 75 36 78 36 3 0 5 -15 5 -32 3 -208 278 -308 411 -149 45 53 217 378 228 431 12 58 -2 127 -37 178 -15 22 -81 105 -146 186 -97 119 -129 151 -170 171 -69 35 -144 34 -215 -1z m1712 -2302 c58 -74 179 -189 254 -240 33 -23 63 -48 67 -57 12 -32 6 -64 -18 -91 -35 -42 -77 -38 -156 15 -86 58 -264 239 -319 324 l-44 68 30 67 c17 37 36 82 43 100 l13 33 43 -81 c24 -44 63 -106 87 -138z" fill="#ffffff"/>
<path d="M3570 4353 c-131 -13 -307 -63 -439 -124 -183 -85 -393 -253 -513 -410 -29 -38 -56 -69 -59 -69 -4 0 -19 19 -34 42 -42 63 -200 222 -281 283 -112 84 -157 105 -228 105 -183 -1 -292 -180 -208 -341 34 -66 128 -138 180 -139 72 0 98 81 41 129 -83 70 -99 89 -99 120 0 44 39 81 83 81 65 0 251 -151 360 -294 108 -140 104 -124 64 -219 -19 -45 -38 -91 -41 -102 -6 -16 -15 -5 -47 55 -43 81 -88 130 -119 130 -10 0 -31 -11 -46 -23 -37 -33 -35 -69 10 -142 153 -252 168 -614 35 -878 -123 -243 -329 -412 -595 -489 -68 -20 -101 -23 -239 -22 -144 0 -169 3 -248 27 -114 35 -224 91 -317 161 -82 62 -109 68 -145 31 -51 -50 -25 -98 97 -182 191 -132 384 -192 616 -193 463 -1 878 298 1021 736 34 105 46 187 61 400 22 338 138 596 369 824 460 452 1174 482 1671 69 73 -61 89 -70 118 -67 44 4 78 44 68 82 -23 91 -368 307 -591 370 -165 47 -379 66 -545 49z" fill="#ffffff"/>
<path d="M809 1091 l-24 -19 0 -277 0 -277 24 -19 c20 -16 40 -19 135 -19 100 0 117 3 164 26 116 58 178 201 152 352 -20 117 -72 191 -160 231 -64 29 -256 30 -291 2z m267 -164 c55 -64 51 -209 -7 -267 -27 -26 -38 -30 -85 -30 l-54 0 0 166 0 166 62 -4 c50 -4 65 -9 84 -31z" fill="#ffffff"/>
<path d="M1445 1085 l-25 -24 0 -264 c0 -340 -13 -317 179 -317 125 0 140 2 156 20 25 28 23 76 -4 103 -18 18 -35 23 -101 25 l-80 4 0 44 0 44 73 0 c64 0 76 3 95 23 29 31 28 72 -3 102 -21 22 -33 25 -95 25 l-70 0 0 45 0 45 70 0 c38 0 80 5 94 11 51 23 55 103 7 128 -11 6 -76 11 -146 11 -120 0 -127 -1 -150 -25z" fill="#ffffff"/>
<path d="M1955 1085 c-14 -13 -25 -32 -25 -42 0 -34 173 -518 193 -540 28 -32 86 -31 115 0 27 28 182 485 182 534 0 62 -76 97 -119 54 -10 -10 -41 -85 -67 -165 -27 -80 -51 -146 -55 -146 -4 0 -29 64 -55 143 -28 83 -58 151 -71 165 -29 29 -68 28 -98 -3z" fill="#ffffff"/>
<path d="M2734 1089 c-68 -26 -138 -89 -172 -153 -23 -44 -27 -63 -27 -141 0 -78 4 -97 27 -141 34 -65 114 -138 175 -158 60 -21 157 -20 219 1 34 11 67 35 111 78 75 75 98 138 91 244 -15 208 -230 345 -424 270z m211 -164 c126 -95 58 -295 -100 -295 -57 0 -102 24 -139 73 -33 44 -30 142 6 189 57 74 160 89 233 33z" fill="#ffffff"/>
<path d="M3342 1087 c-21 -23 -22 -30 -22 -295 0 -259 1 -273 20 -292 27 -27 81 -26 106 1 15 16 20 40 23 105 l3 84 49 0 c190 0 289 217 161 354 -48 51 -95 66 -213 66 -98 0 -107 -2 -127 -23z m226 -143 c26 -18 29 -60 5 -86 -11 -12 -30 -18 -60 -18 l-43 0 0 60 0 60 38 0 c21 0 48 -7 60 -16z" fill="#ffffff"/>
<path d="M4015 1091 c-74 -34 -115 -95 -115 -172 0 -82 46 -129 177 -179 44 -17 88 -39 98 -50 16 -17 15 -20 -4 -39 -15 -15 -34 -21 -63 -21 -40 0 -56 7 -121 53 -19 13 -35 17 -56 12 -36 -8 -49 -22 -57 -64 -6 -28 -2 -37 38 -75 54 -51 119 -76 200 -76 131 0 221 81 221 197 0 96 -54 149 -210 208 -40 15 -73 32 -73 39 0 42 75 48 135 11 51 -31 80 -31 110 0 36 35 32 71 -10 111 -64 60 -191 81 -270 45z" fill="#ffffff"/>
</g>
</svg>