<svg xmlns="http://www.w3.org/2000/svg" version="1.0" width="512.000000pt" height="512.000000pt" viewBox="0 0 512.000000 512.000000" preserveAspectRatio="xMidYMid meet">

<g transform="translate(0.000000,512.000000) scale(0.100000,-0.100000)" fill="#ffffff" stroke="none">
<path d="M368 4626 c-102 -37 -182 -109 -227 -205 l-26 -56 0 -1805 0 -1805 27 -57 c35 -76 95 -138 170 -179 l63 -34 2190 0 2190 0 60 32 c74 38 138 105 173 181 l27 57 0 1805 0 1805 -27 57 c-35 76 -104 148 -175 184 l-58 29 -2175 2 c-1772 2 -2182 0 -2212 -11z m4367 -155 c45 -21 89 -61 113 -106 15 -26 17 -76 20 -372 l3 -343 -2306 0 -2305 0 0 323 c0 196 4 337 11 360 13 49 73 115 124 138 38 18 131 19 2170 19 2045 0 2132 -1 2170 -19z m135 -2308 c0 -913 -3 -1350 -11 -1376 -13 -49 -73 -115 -124 -138 -38 -18 -131 -19 -2170 -19 -2039 0 -2132 1 -2170 19 -51 23 -111 89 -124 138 -8 26 -11 463 -11 1376 l0 1337 2305 0 2305 0 0 -1337z" fill="#ffffff"/>
<path d="M668 4286 c-185 -50 -228 -299 -70 -408 83 -57 204 -50 278 15 103 89 106 246 7 339 -55 52 -141 74 -215 54z m110 -166 c46 -43 13 -130 -50 -130 -36 0 -78 40 -78 75 0 35 42 75 78 75 15 0 38 -9 50 -20z" fill="#ffffff"/>
<path d="M1307 4289 c-110 -26 -187 -122 -187 -230 0 -43 33 -115 68 -152 86 -91 243 -90 330 1 150 160 1 431 -211 381z m98 -174 c14 -13 25 -36 25 -50 0 -33 -41 -75 -74 -75 -39 0 -57 11 -71 44 -34 80 59 143 120 81z" fill="#ffffff"/>
<path d="M1907 4286 c-60 -16 -114 -60 -145 -117 -34 -63 -29 -168 11 -227 42 -64 97 -95 174 -100 118 -8 205 51 237 159 20 65 20 64 1 127 -36 121 -158 190 -278 158z m110 -168 c30 -28 30 -74 1 -105 -29 -31 -72 -30 -103 2 -69 68 31 170 102 103z" fill="#ffffff"/>
<path d="M2797 2949 c-22 -20 -66 -140 -261 -714 -129 -379 -257 -757 -286 -839 -54 -156 -56 -180 -20 -216 24 -24 74 -18 108 15 17 16 97 239 304 846 154 453 283 835 285 849 11 62 -80 103 -130 59z" fill="#ffffff"/>
<path d="M3178 2480 c-9 -6 -22 -26 -28 -45 -13 -39 -2 -69 34 -95 12 -8 189 -90 395 -182 205 -92 375 -168 377 -170 2 -2 -173 -82 -388 -178 -338 -150 -393 -178 -409 -204 -24 -40 -24 -57 2 -90 14 -18 30 -26 52 -26 45 0 894 382 924 415 50 56 36 145 -29 185 -18 11 -195 92 -393 181 -198 89 -387 175 -419 190 -63 30 -90 35 -118 19z" fill="#ffffff"/>
<path d="M1445 2280 c-445 -202 -477 -220 -491 -276 -10 -38 13 -100 44 -122 28 -20 838 -388 882 -402 37 -11 69 5 85 44 17 40 8 76 -24 98 -12 8 -192 91 -400 184 -209 92 -379 170 -377 172 2 1 179 81 392 176 373 165 390 174 407 208 24 49 14 86 -29 104 -18 8 -37 14 -41 13 -4 0 -206 -90 -448 -199z" fill="#ffffff"/>
</g>
</svg>